<?xml version="1.0" encoding="UTF-8" standalone="no"?>
        <svg 
    viewBox="4.0283203125 -86.1328125 446.8505859375 57.275390625"
    width="442.822265625"
    height="143.408203125"
   xmlns="http://www.w3.org/2000/svg"
   xmlns:svg="http://www.w3.org/2000/svg">
   <path d="M121.51-46.51L148.02-32.23Q147.14-30.91 145.64-30.47Q144.14-30.03 141.43-30.47L141.43-30.47Q125.17-11.43 106.13-1.10Q87.08 9.23 63.57 14.43L63.57 14.43L62.99 12.45Q81.67 3.22 96.13-10.84Q110.60-24.90 121.51-46.51L121.51-46.51ZM117.92-88.18L143.70-73.54Q142.90-72.14 141.58-71.74Q140.26-71.34 137.55-71.70L137.55-71.70Q125.98-59.69 111.91-51.23Q97.85-42.77 82.18-37.50L82.18-37.50L81.45-39.48Q92.94-48.19 101.81-60.50Q110.67-72.80 117.92-88.18L117.92-88.18ZM117.63-126.12L142.02-110.52Q141.14-109.28 139.82-108.95Q138.50-108.62 135.86-109.20L135.86-109.20Q125.10-99.98 112.17-92.40Q99.24-84.81 86.43-79.61L86.43-79.61L85.47-81.45Q94.92-90.09 102.83-101.70Q110.74-113.31 117.63-126.12L117.63-126.12ZM55.66-39.33L80.27-34.50Q79.91-33.18 78.59-32.19Q77.27-31.20 74.71-31.20L74.71-31.20Q71.63-27.47 67.31-22.92Q62.99-18.38 58.37-14.28L58.37-14.28L90.01-18.16L90.16-16.19Q79.10-11.13 61.96-4.76Q44.82 1.61 19.04 10.03L19.04 10.03Q17.58 13.18 14.72 13.62L14.72 13.62L4.03-8.57Q11.13-9.01 23.73-10.36Q36.33-11.72 52.08-13.48L52.08-13.48Q53.17-19.56 54.20-26.66Q55.22-33.76 55.66-39.33L55.66-39.33ZM14.87-36.77L14.87-79.47L36.47-71.56L57.93-71.56L66.87-81.30L85.62-67.24Q84.96-66.43 83.50-65.48Q82.03-64.53 79.61-64.01L79.61-64.01L79.61-44.09Q79.54-43.58 76.79-42.41Q74.05-41.24 70.17-40.28Q66.28-39.33 62.99-39.33L62.99-39.33L59.40-39.33L59.40-45.48L34.35-45.48L34.35-41.97Q34.35-41.31 32.19-39.92Q30.03-38.53 26.07-37.65L26.07-37.65Q34.50-35.01 38.75-31.57Q42.99-28.13 44.02-24.57Q45.04-21.02 43.69-18.13Q42.33-15.23 39.48-13.73Q36.62-12.23 33.11-12.74Q29.59-13.26 26.37-16.63L26.37-16.63Q27.10-21.97 26.11-27.50Q25.12-33.03 23.58-37.21L23.58-37.21Q21.31-36.77 18.46-36.77L18.46-36.77L14.87-36.77ZM34.35-49.66L59.40-49.66L59.40-67.38L34.35-67.38L34.35-49.66ZM65.99-108.33L76.17-121.51Q76.17-121.51 78.04-120.04Q79.91-118.58 82.84-116.31Q85.77-114.04 88.92-111.44Q92.07-108.84 94.63-106.49L94.63-106.49Q93.97-104.08 90.31-104.08L90.31-104.08L56.69-104.08L56.69-88.18L60.13-88.18L70.02-100.93Q70.02-100.93 71.85-99.54Q73.68-98.14 76.50-95.91Q79.32-93.68 82.43-91.15Q85.55-88.62 88.04-86.43L88.04-86.43Q87.38-84.01 83.86-84.01L83.86-84.01L11.28-84.01L10.03-88.18L35.67-88.18L35.67-104.08L6.59-104.08L5.42-108.33L35.67-108.33L35.67-128.25L62.11-126.12Q61.96-124.58 60.90-123.49Q59.84-122.39 56.69-121.95L56.69-121.95L56.69-108.33L65.99-108.33ZM206.10-46.07L207.42-46.66Q218.04-43.14 223.72-38.49Q229.39-33.84 231.19-29.00Q232.98-24.17 231.85-20.14Q230.71-16.11 227.64-13.81Q224.56-11.50 220.46-11.83Q216.36-12.16 212.26-16.19L212.26-16.19Q212.70-23.95 210.79-31.86Q208.89-39.77 206.10-46.07L206.10-46.07ZM197.09-118.07L197.09-118.07Q210.35-116.82 218.08-113.60Q225.81-110.38 229.10-106.16Q232.40-101.95 232.29-97.74Q232.18-93.53 229.72-90.27Q227.27-87.01 223.43-85.62Q219.58-84.23 215.55-85.77L215.55-85.77L223.68-79.03Q223.02-76.68 219.43-76.68L219.43-76.68L204.13-76.68L204.13-57.57L204.79-57.57L214.01-70.39Q214.01-70.39 216.98-67.93Q219.95-65.48 223.97-62.11Q228.00-58.74 231.15-55.81L231.15-55.81Q230.49-53.39 226.98-53.39L226.98-53.39L204.13-53.39L204.13-9.59Q204.13-3.00 202.51 2.09Q200.90 7.18 195.89 10.36Q190.87 13.55 180.62 14.43L180.62 14.43Q180.40 9.59 179.88 5.93Q179.37 2.27 178.05 0L178.05 0Q176.81-2.12 174.50-3.85Q172.19-5.57 167.29-6.45L167.29-6.45L167.29-8.28Q167.29-8.28 169.01-8.17Q170.73-8.06 173.22-7.95Q175.71-7.84 177.94-7.73Q180.18-7.62 181.20-7.62L181.20-7.62Q183.91-7.62 183.91-10.18L183.91-10.18L183.91-38.38L182.89-38.23Q177.91-26.88 170.91-18.38Q163.92-9.89 155.42-4.47L155.42-4.47L153.44-5.71Q157.47-13.70 160.55-24.94Q163.62-36.18 164.87-47.97L164.87-47.97L183.91-42.92L183.91-53.39L158.57-53.39L157.32-57.57L183.91-57.57L183.91-76.68L167.87-76.68L166.63-80.86L197.09-80.86L206.54-93.02L211.67-89.14Q211.08-95.73 207.39-103.38Q203.69-111.04 196.51-116.82L196.51-116.82Q192.33-109.35 185.74-101.59Q179.15-93.82 170.91-86.90Q162.67-79.98 153.44-75L153.44-75L152.42-75.88Q156.37-81.37 159.92-88.26Q163.48-95.14 166.33-102.47Q169.19-109.79 171.24-116.67Q173.29-123.56 174.32-128.98L174.32-128.98L203.69-121.66Q203.25-120.19 201.82-119.24Q200.39-118.29 197.09-118.07ZM240.75-127.95L240.75-127.95L268.95-121.22Q267.99-117.77 263.09-117.77L263.09-117.77Q261.18-111.25 258.84-105.29Q256.49-99.32 253.78-93.90L253.78-93.90L268.95-93.90L279.42-107.89Q279.42-107.89 281.36-106.31Q283.30-104.74 286.23-102.32Q289.16-99.90 292.38-97.19Q295.61-94.48 298.17-92.07L298.17-92.07Q297.51-89.72 293.99-89.72L293.99-89.72L287.40-89.72Q285.79-72.51 281.58-56.73Q277.37-40.94 268.95-27.47L268.95-27.47Q275.02-20.51 282.57-14.90Q290.11-9.30 299.27-4.98L299.27-4.98L298.68-3.44Q290.99-1.76 286.56 2.64Q282.13 7.03 280.22 14.28L280.22 14.28Q273.12 8.86 267.70 1.94Q262.28-4.98 258.18-13.18L258.18-13.18Q250.20-4.76 239.36 2.20Q228.52 9.16 214.23 14.28L214.23 14.28L213.28 12.89Q226.90 3.88 236.17-7.10Q245.43-18.09 251.22-30.47L251.22-30.47Q248.07-40.58 245.98-51.93Q243.90-63.28 242.58-75.73L242.58-75.73Q237.60-69.36 232.03-64.53L232.03-64.53L230.27-65.55Q232.98-73.75 235.18-84.08Q237.38-94.41 238.84-105.69Q240.31-116.97 240.75-127.95ZM256.93-44.97L256.93-44.97Q260.30-55.59 261.99-66.83Q263.67-78.08 264.18-89.72L264.18-89.72L251.73-89.72Q248.44-83.86 245.21-79.17L245.21-79.17Q249.10-59.84 256.93-44.97ZM323.88-76.98L323.88-76.98L325.63-77.12Q326.66-74.85 327.47-72.80Q328.27-70.75 328.78-68.70L328.78-68.70L419.24-68.70L429.42-78.74L446.85-62.26Q445.46-60.64 440.99-60.42L440.99-60.42Q437.84-58.81 433.56-56.87Q429.27-54.93 424.88-53.10Q420.48-51.27 416.82-50.10L416.82-50.10L415.65-50.98Q416.53-53.69 417.66-57.42Q418.80-61.16 419.68-64.53L419.68-64.53L400.05-64.53Q402.76-62.48 407.08-59.11Q411.40-55.74 414.92-52.81L414.92-52.81Q414.26-50.39 410.67-50.39L410.67-50.39L388.77-50.39Q391.04-44.24 394.26-39.33Q397.49-34.42 401.37-30.47L401.37-30.47Q406.79-35.08 411.91-40.54Q417.04-46.00 419.97-49.95L419.97-49.95L440.11-34.94Q439.53-33.91 438.24-33.47Q436.96-33.03 434.40-33.62L434.40-33.62Q428.69-31.57 421.11-29.74Q413.53-27.91 405.91-26.51L405.91-26.51Q413.67-20.36 423.41-16.70Q433.15-13.04 443.85-10.62L443.85-10.62L443.70-9.01Q437.62-7.40 433.41-2.60Q429.20 2.20 427.22 9.59L427.22 9.59Q416.02 3.81 407.89-3.70Q399.76-11.21 394.45-22.41Q389.14-33.62 386.28-50.39L386.28-50.39L383.28-50.39Q380.64-48.85 377.64-47.46Q374.63-46.07 371.41-44.68L371.41-44.68Q379.39-38.89 383.94-31.46Q388.48-24.02 390.09-16.44Q391.70-8.86 390.82-2.34Q389.94 4.17 387.01 8.13L387.01 8.13Q384.30 11.72 378.44 13.00Q372.58 14.28 364.53 14.28L364.53 14.28Q364.31 6.45 361.23 2.71L361.23 2.71Q359.99 1.32 357.13-0.04Q354.27-1.39 350.54-2.56L350.54-2.56L350.54-3.44Q328.78 3.66 306.30 6.88L306.30 6.88L305.42 4.83Q317.36 1.25 329.48-4.17Q341.60-9.59 352.40-16.08Q363.21-22.56 371.12-29.22L371.12-29.22L370.83-30.62Q362.18-26.51 351.71-23.00Q341.24-19.48 330.03-16.88Q318.82-14.28 308.13-12.89L308.13-12.89L307.32-15.16Q317.07-17.87 327.10-22.01Q337.13-26.15 346.22-31.20Q355.30-36.25 362.11-41.53L362.11-41.53Q351.49-38.31 339.40-36.22Q327.32-34.13 314.72-33.03L314.72-33.03L313.92-34.79Q324.98-37.65 334.79-41.78Q344.60-45.92 352.08-50.39L352.08-50.39L333.62-50.39L332.37-54.57L387.45-54.57L395.58-64.53L329.74-64.53Q330.91-56.03 328.16-50.35Q325.42-44.68 320.73-42.92L320.73-42.92Q316.19-41.09 311.57-42.99Q306.96-44.90 305.86-50.10L305.86-50.10Q304.76-55.15 307.43-58.45Q310.11-61.74 314.43-63.28L314.43-63.28Q318.02-64.75 321.17-68.48Q324.32-72.22 323.88-76.98ZM372.00-11.72L372.00-11.72Q367.38-9.59 362.33-7.65Q357.28-5.71 351.93-3.88L351.93-3.88Q355.59-3.59 360.31-3.37Q365.04-3.15 367.02-3.15L367.02-3.15Q369.65-3.15 370.39-4.32L370.39-4.32Q371.56-6.74 372.00-11.72ZM333.33-70.02L333.33-98.07L333.33-106.35L355.66-98.07L394.48-98.07L403.05-107.08L309.16-107.08L307.98-111.33L363.43-111.33L363.43-128.69L391.19-126.78Q391.11-125.17 390.01-124.07Q388.92-122.97 385.77-122.39L385.77-122.39L385.77-111.33L413.53-111.33L424.37-125.83Q424.37-125.83 426.38-124.26Q428.39-122.68 431.51-120.15Q434.62-117.63 437.99-114.81Q441.36-111.99 444.14-109.50L444.14-109.50Q443.48-107.08 439.82-107.08L439.82-107.08L404.08-107.08L422.09-93.90Q421.51-93.24 420.45-92.50Q419.38-91.77 417.48-91.33L417.48-91.33L417.48-76.68Q417.41-76.03 414.33-74.96Q411.25-73.90 407.15-73.02Q403.05-72.14 399.76-72.14L399.76-72.14L395.87-72.14L395.87-77.27L354.57-77.27L354.57-76.17Q354.57-75.37 351.75-73.90Q348.93-72.44 344.68-71.23Q340.43-70.02 336.18-70.02L336.18-70.02L333.33-70.02ZM354.57-93.90L354.57-81.45L395.87-81.45L395.87-93.90L354.57-93.90Z"/>
    </svg>
        